<svg width="375" height="161" viewBox="0 0 375 161" xmlns="http://www.w3.org/2000/svg" xmlns:xlink="http://www.w3.org/1999/xlink">
    <defs>
        <path id="fdteu10zka" d="M0 0h375v161H0z"/>
    </defs>
    <g fill="none" fill-rule="evenodd">
        <mask id="t69fejadkb" fill="#fff">
            <use xlink:href="#fdteu10zka"/>
        </mask>
        <use fill="#3D2A7D" xlink:href="#fdteu10zka"/>
        <g mask="url(#t69fejadkb)" stroke="#513C98">
            <path d="M370.999 205.165c28.26-43.602 15.864-101.92-27.687-130.258-43.552-28.338-101.766-15.964-130.026 27.638l157.713 102.62zM153.001 86.835c-28.26 43.602-15.864 101.92 27.687 130.258 43.552 28.338 101.766 15.964 130.026-27.638L153.001 86.835z"/>
        </g>
        <g mask="url(#t69fejadkb)">
            <path d="M128.934 212.146c22.812-35.314 12.766-82.573-22.436-105.556C71.295 83.608 24.264 93.604 1.453 128.918l127.481 83.228z" fill="#372573"/>
            <path d="M-47.264 116.16c-22.812 35.313-12.767 82.572 22.436 105.555 35.203 22.982 82.233 12.986 105.045-22.328l-127.481-83.228z" fill="#443089"/>
        </g>
    </g>
</svg>
