<svg width="30" height="30" viewBox="0 0 30 30" xmlns="http://www.w3.org/2000/svg" xmlns:xlink="http://www.w3.org/1999/xlink">
    <defs>
        <path id="yzsxtokiba" d="M0 0h30v29.643H0z"/>
    </defs>
    <g fill="none" fill-rule="evenodd">
        <g>
            <mask id="ahggppli5b" fill="#fff">
                <use xlink:href="#yzsxtokiba"/>
            </mask>
            <path d="M30 14.911C30 6.675 23.284 0 15 0 6.713-.001-.003 6.675-.003 14.91c0 7.444 5.486 13.613 12.657 14.732v-10.42H8.846V14.91h3.81v-3.285c0-3.737 2.239-5.802 5.665-5.802 1.642 0 3.358.291 3.358.291v3.67h-1.891c-1.864 0-2.445 1.15-2.445 2.33v2.796h4.16l-.665 4.311h-3.495v10.42C24.514 28.525 30 22.356 30 14.913" fill="#1877F2" mask="url(#ahggppli5b)"/>
        </g>
        <path d="m20.943 19.272.667-4.362H17.44v-2.83c0-1.194.583-2.357 2.45-2.357h1.895V6.009s-1.72-.295-3.365-.295c-3.433 0-5.676 2.09-5.676 5.871v3.325H8.929v4.362h3.816v10.545a15.082 15.082 0 0 0 4.696 0V19.272h3.502" fill="#FFF"/>
    </g>
</svg>
