<svg width="29" height="30" viewBox="0 0 29 30" xmlns="http://www.w3.org/2000/svg">
    <g fill-rule="nonzero" fill="none">
        <path d="M29 15.333c0-1.233-.099-2.133-.312-3.066H14.796v5.566h8.154c-.164 1.384-1.052 3.467-3.025 4.867l-.028.186 4.393 3.45.304.03C27.39 23.75 29 19.9 29 15.334" fill="#4285F4"/>
        <path d="M14.796 30c3.995 0 7.348-1.333 9.798-3.633L19.925 22.7c-1.25.883-2.926 1.5-5.13 1.5-3.912 0-7.233-2.617-8.416-6.233l-.174.015-4.567 3.583-.06.168C4.011 26.633 9.01 30 14.796 30" fill="#34A853"/>
        <path d="M6.379 17.967A9.35 9.35 0 0 1 5.886 15c0-1.033.18-2.033.476-2.967l-.008-.198-4.625-3.641-.15.073A15.183 15.183 0 0 0 0 15c0 2.417.575 4.7 1.578 6.733l4.8-3.766" fill="#FBBC05"/>
        <path d="M14.796 5.8c2.778 0 4.652 1.217 5.721 2.233L24.693 3.9C22.128 1.483 18.79 0 14.796 0 9.009 0 4.01 3.367 1.578 8.267l4.784 3.766c1.2-3.616 4.521-6.233 8.434-6.233" fill="#EB4335"/>
    </g>
</svg>
