<svg width="33" height="32" viewBox="0 0 33 32" xmlns="http://www.w3.org/2000/svg">
    <g transform="translate(.145)" fill="none" fill-rule="evenodd">
        <rect fill="#303030" width="32.073" height="32" rx="16"/>
        <path d="M11.905 10.913c0 .78-.647 1.413-1.447 1.413-.799 0-1.446-.632-1.446-1.413 0-.78.647-1.413 1.446-1.413.8 0 1.447.633 1.447 1.413zm.012 2.544H9V22.5h2.917v-9.043zm4.656 0h-2.898V22.5h2.898v-4.747c0-2.64 3.517-2.856 3.517 0V22.5H23v-5.726c0-4.454-5.204-4.292-6.427-2.1v-1.217z" fill="#00C0F5" fill-rule="nonzero"/>
    </g>
</svg>
