<svg width="39" height="39" viewBox="0 0 39 39" xmlns="http://www.w3.org/2000/svg">
    <g transform="translate(0 2)" fill="none" fill-rule="evenodd">
        <circle fill="#FFF" cx="18" cy="19" r="18"/>
        <path d="M6 7h24v24H6z"/>
        <path d="M16 10h4a8 8 0 1 1 0 16v3.5c-5-2-12-5-12-11.5a8 8 0 0 1 8-8zm2 14h2a6 6 0 1 0 0-12h-4a6 6 0 0 0-6 6c0 3.61 2.462 5.966 8 8.48V24z" fill="#00C0F5" fill-rule="nonzero"/>
        <g transform="translate(17)">
            <circle stroke="#FFF" stroke-width="2" fill="#F44" cx="10" cy="10" r="11"/>
            <text font-family="Outfit-Medium, Outfit" font-size="13" font-weight="400" letter-spacing="-.087" fill="#FFF">
                        <tspan x="6.5" y="14.5">2</tspan>
                    </text>
        </g>
    </g>
</svg>
