<svg width="125" height="40" viewBox="0 0 125 40" xmlns="http://www.w3.org/2000/svg">
    <g fill="#FFF" fill-rule="evenodd">
        <path d="M25.677 8.21a11.474 11.474 0 0 0-16.387 0c-4.525 4.59-4.525 12.028 0 16.617L25.677 8.21zM5.857 31.79a11.474 11.474 0 0 0 16.387 0c4.525-4.59 4.525-12.028 0-16.617L5.857 31.79z"/>
        <g fill-rule="nonzero">
            <path d="M37.426 28.046c-1.332 0-2.508-.38-3.528-1.14-1.02-.76-1.735-1.836-2.146-3.227l2.699-1.076c.212.817.574 1.47 1.083 1.958.51.487 1.148.731 1.913.731.637 0 1.183-.161 1.636-.484.453-.323.68-.77.68-1.345 0-.573-.216-1.043-.648-1.409-.432-.365-1.2-.756-2.306-1.172l-.935-.344a6.446 6.446 0 0 1-2.507-1.581c-.694-.71-1.041-1.603-1.041-2.679 0-.803.205-1.534.616-2.194.411-.66.992-1.18 1.743-1.56.75-.38 1.6-.57 2.55-.57 1.373 0 2.457.327 3.25.98.794.652 1.339 1.415 1.636 2.29L39.593 16.3a2.564 2.564 0 0 0-.818-1.194c-.39-.323-.89-.484-1.498-.484-.623 0-1.137.147-1.54.441-.404.294-.606.678-.606 1.15 0 .46.191.85.573 1.173.383.323 1.013.635 1.892.936l.956.323c1.317.459 2.326 1.065 3.028 1.818.7.752 1.051 1.738 1.051 2.957 0 1.004-.255 1.854-.765 2.55a4.69 4.69 0 0 1-1.965 1.56c-.8.343-1.626.516-2.475.516zM43.694 12.299h9.646v2.753h-6.778v3.571h6.099v2.754h-6.099v3.57h6.778v2.754h-9.646zM62.37 28.046c-1.472 0-2.818-.355-4.036-1.065a7.766 7.766 0 0 1-2.88-2.904c-.7-1.227-1.051-2.585-1.051-4.077s.35-2.85 1.052-4.077a7.766 7.766 0 0 1 2.879-2.904c1.218-.71 2.564-1.065 4.037-1.065 2.295 0 4.193.84 5.694 2.517l-2.018 1.98c-.978-1.162-2.196-1.743-3.655-1.743-.949 0-1.813.219-2.592.656a4.71 4.71 0 0 0-1.838 1.86c-.446.804-.67 1.73-.67 2.776 0 1.047.224 1.972.67 2.775a4.71 4.71 0 0 0 1.838 1.86c.779.438 1.643.657 2.592.657 1.6 0 2.94-.674 4.016-2.022l2.04 1.957a7.552 7.552 0 0 1-2.667 2.098c-1.027.48-2.163.72-3.41.72zM76.395 28.046c-1.488 0-2.837-.355-4.048-1.065a7.688 7.688 0 0 1-2.858-2.915c-.694-1.234-1.041-2.589-1.041-4.066 0-1.477.347-2.832 1.041-4.066a7.688 7.688 0 0 1 2.858-2.915c1.211-.71 2.56-1.065 4.048-1.065 1.487 0 2.836.355 4.048 1.065a7.688 7.688 0 0 1 2.857 2.915c.695 1.234 1.042 2.589 1.042 4.066 0 1.477-.347 2.832-1.042 4.066a7.688 7.688 0 0 1-2.857 2.915c-1.212.71-2.56 1.065-4.048 1.065zm0-2.754c.935 0 1.792-.222 2.57-.667a4.784 4.784 0 0 0 1.839-1.871c.446-.804.67-1.721.67-2.754s-.224-1.95-.67-2.754a4.784 4.784 0 0 0-1.838-1.871 5.097 5.097 0 0 0-2.571-.667c-.935 0-1.789.222-2.56.667a4.806 4.806 0 0 0-1.828 1.871c-.446.804-.67 1.721-.67 2.754s.224 1.95.67 2.754a4.806 4.806 0 0 0 1.827 1.871 5.039 5.039 0 0 0 2.56.667zM85.935 12.299h3.336l6.12 10.325h.17l-.17-2.968v-7.357h2.847V27.7H95.22l-6.46-10.906h-.17l.17 2.968v7.938h-2.826zM99.832 12.299h5.142c1.586 0 2.967.322 4.143.968a6.73 6.73 0 0 1 2.72 2.71c.637 1.162.956 2.503.956 4.023 0 1.52-.319 2.861-.956 4.023a6.73 6.73 0 0 1-2.72 2.71c-1.176.646-2.557.968-4.143.968h-5.142V12.3zm5.014 12.649c1.643 0 2.897-.441 3.761-1.323.864-.882 1.296-2.09 1.296-3.625 0-1.535-.432-2.743-1.296-3.625-.864-.882-2.118-1.323-3.76-1.323H102.7v9.896h2.146zM119.794 28.046c-1.331 0-2.507-.38-3.527-1.14-1.02-.76-1.735-1.836-2.146-3.227l2.698-1.076c.213.817.574 1.47 1.084 1.958.51.487 1.148.731 1.912.731.638 0 1.183-.161 1.637-.484.453-.323.68-.77.68-1.345 0-.573-.217-1.043-.649-1.409-.432-.365-1.2-.756-2.305-1.172l-.935-.344a6.446 6.446 0 0 1-2.507-1.581c-.694-.71-1.041-1.603-1.041-2.679 0-.803.205-1.534.616-2.194.41-.66.991-1.18 1.742-1.56.75-.38 1.6-.57 2.55-.57 1.374 0 2.458.327 3.25.98.794.652 1.34 1.415 1.637 2.29l-2.528 1.076a2.564 2.564 0 0 0-.819-1.194c-.39-.323-.888-.484-1.498-.484-.623 0-1.136.147-1.54.441-.404.294-.606.678-.606 1.15 0 .46.192.85.574 1.173.383.323 1.013.635 1.891.936l.956.323c1.318.459 2.327 1.065 3.028 1.818.701.752 1.052 1.738 1.052 2.957 0 1.004-.255 1.854-.765 2.55a4.69 4.69 0 0 1-1.965 1.56c-.8.343-1.626.516-2.476.516z"/>
        </g>
    </g>
</svg>
