<svg width="156" height="50" viewBox="0 0 156 50" xmlns="http://www.w3.org/2000/svg">
    <g fill="none" fill-rule="evenodd">
        <path d="M31.809 10.29a14.369 14.369 0 0 0-20.49 0c-5.657 5.725-5.657 15.007 0 20.732L31.81 10.29z" fill="#00C0F5"/>
        <path d="M7.027 39.71a14.369 14.369 0 0 0 20.49 0c5.657-5.725 5.657-15.007 0-20.732L7.026 39.71z" fill="#FFD100"/>
        <g fill="#222" fill-rule="nonzero">
            <path d="M46.5 35.039c-1.666 0-3.136-.475-4.411-1.423-1.275-.948-2.17-2.29-2.683-4.026l3.374-1.342c.265 1.02.717 1.834 1.355 2.442.637.609 1.434.913 2.39.913.798 0 1.48-.201 2.047-.604.566-.403.85-.962.85-1.678 0-.715-.27-1.301-.81-1.758-.54-.456-1.502-.944-2.883-1.463l-1.17-.429a8.063 8.063 0 0 1-3.134-1.973c-.868-.886-1.302-2-1.302-3.341 0-1.003.257-1.915.77-2.738.514-.823 1.24-1.472 2.179-1.946.939-.474 2.001-.712 3.188-.712 1.718 0 3.073.408 4.065 1.222.992.814 1.674 1.767 2.046 2.858l-3.162 1.342a3.2 3.2 0 0 0-1.023-1.49c-.487-.402-1.111-.603-1.873-.603-.78 0-1.421.183-1.926.55-.505.367-.757.845-.757 1.436 0 .573.239 1.06.717 1.463.478.402 1.267.792 2.365 1.167l1.195.403c1.648.573 2.91 1.329 3.786 2.268.877.94 1.315 2.17 1.315 3.69 0 1.253-.318 2.314-.956 3.181a5.862 5.862 0 0 1-2.458 1.946c-1 .43-2.032.645-3.095.645zM54.337 15.39h12.062v3.437h-8.475v4.455h7.625v3.436h-7.625v4.455h8.475v3.436H54.337zM77.69 35.039c-1.842 0-3.524-.443-5.048-1.33a9.7 9.7 0 0 1-3.6-3.623c-.876-1.53-1.315-3.225-1.315-5.086 0-1.861.439-3.556 1.315-5.086a9.7 9.7 0 0 1 3.6-3.624c1.524-.886 3.206-1.329 5.048-1.329 2.87 0 5.243 1.047 7.12 3.14l-2.523 2.47c-1.223-1.45-2.746-2.174-4.57-2.174-1.187 0-2.267.273-3.241.819a5.883 5.883 0 0 0-2.299 2.322c-.558 1.002-.837 2.156-.837 3.462s.28 2.46.837 3.462a5.883 5.883 0 0 0 2.299 2.322c.974.546 2.054.819 3.24.819 2.002 0 3.676-.841 5.022-2.523l2.55 2.442c-.938 1.146-2.05 2.018-3.334 2.617-1.284.6-2.705.9-4.264.9zM95.225 35.039c-1.86 0-3.547-.443-5.06-1.33a9.603 9.603 0 0 1-3.574-3.636c-.868-1.539-1.302-3.23-1.302-5.073 0-1.843.434-3.534 1.302-5.073a9.603 9.603 0 0 1 3.573-3.637c1.514-.886 3.202-1.329 5.061-1.329 1.86 0 3.547.443 5.062 1.33a9.603 9.603 0 0 1 3.573 3.636c.868 1.539 1.302 3.23 1.302 5.073 0 1.843-.434 3.534-1.302 5.073a9.603 9.603 0 0 1-3.573 3.637c-1.515.886-3.202 1.329-5.062 1.329zm0-3.436c1.17 0 2.24-.277 3.215-.832a5.976 5.976 0 0 0 2.298-2.335c.558-1.002.837-2.148.837-3.436 0-1.288-.279-2.434-.837-3.436a5.976 5.976 0 0 0-2.298-2.335c-.974-.555-2.046-.832-3.215-.832s-2.236.277-3.201.832a6.003 6.003 0 0 0-2.285 2.335c-.558 1.002-.837 2.148-.837 3.436 0 1.288.279 2.434.837 3.436a6.003 6.003 0 0 0 2.285 2.335c.965.555 2.032.832 3.201.832zM107.154 15.39h4.172l7.651 12.885h.213l-.213-3.704v-9.18h3.56v19.218h-3.772l-8.077-13.608h-.213l.213 3.704v9.904h-3.534zM124.53 15.39h6.43c1.983 0 3.71.404 5.18 1.209a8.407 8.407 0 0 1 3.401 3.382c.797 1.45 1.196 3.122 1.196 5.019 0 1.897-.399 3.57-1.196 5.02a8.407 8.407 0 0 1-3.4 3.381c-1.47.805-3.198 1.208-5.182 1.208h-6.429V15.391zm6.27 15.783c2.055 0 3.622-.55 4.703-1.65 1.08-1.1 1.62-2.608 1.62-4.523 0-1.915-.54-3.422-1.62-4.523-1.08-1.1-2.648-1.65-4.703-1.65h-2.683v12.346h2.683zM149.49 35.039c-1.664 0-3.134-.475-4.41-1.423-1.275-.948-2.17-2.29-2.683-4.026l3.374-1.342c.266 1.02.718 1.834 1.355 2.442.638.609 1.435.913 2.391.913.797 0 1.48-.201 2.046-.604.567-.403.85-.962.85-1.678 0-.715-.27-1.301-.81-1.758-.54-.456-1.501-.944-2.883-1.463l-1.169-.429a8.063 8.063 0 0 1-3.135-1.973c-.868-.886-1.302-2-1.302-3.341 0-1.003.257-1.915.77-2.738.515-.823 1.24-1.472 2.18-1.946.938-.474 2.001-.712 3.188-.712 1.718 0 3.073.408 4.065 1.222.991.814 1.673 1.767 2.045 2.858l-3.161 1.342a3.2 3.2 0 0 0-1.023-1.49c-.487-.402-1.112-.603-1.873-.603-.78 0-1.422.183-1.926.55-.505.367-.758.845-.758 1.436 0 .573.24 1.06.718 1.463.478.402 1.266.792 2.364 1.167l1.196.403c1.647.573 2.91 1.329 3.786 2.268.877.94 1.315 2.17 1.315 3.69 0 1.253-.319 2.314-.956 3.181a5.862 5.862 0 0 1-2.458 1.946c-1 .43-2.032.645-3.095.645z"/>
        </g>
    </g>
</svg>
