<svg width="33" height="32" viewBox="0 0 33 32" xmlns="http://www.w3.org/2000/svg">
    <g transform="translate(.073)" fill="none" fill-rule="evenodd">
        <rect fill="#303030" width="32.073" height="32" rx="16"/>
        <path d="M23 12.802a5.889 5.889 0 0 1-1.65.437 2.8 2.8 0 0 0 1.263-1.536c-.554.318-1.17.55-1.824.674a2.914 2.914 0 0 0-2.096-.877c-1.855 0-3.217 1.673-2.799 3.41a8.25 8.25 0 0 1-5.92-2.902c-.752 1.248-.39 2.881.89 3.708a2.935 2.935 0 0 1-1.301-.348c-.032 1.287.922 2.49 2.303 2.758-.404.106-.846.131-1.297.048.365 1.103 1.426 1.905 2.684 1.928A5.918 5.918 0 0 1 9 21.252a8.335 8.335 0 0 0 4.403 1.248c5.333 0 8.346-4.355 8.164-8.26A5.744 5.744 0 0 0 23 12.802z" fill="#00C0F5" fill-rule="nonzero"/>
    </g>
</svg>
