<svg width="30" height="30" viewBox="0 0 30 30" xmlns="http://www.w3.org/2000/svg">
    <g fill-rule="nonzero" fill="none">
        <circle fill="#2DAAE1" cx="15" cy="15" r="15"/>
        <path d="M24.618 9.033a7.879 7.879 0 0 1-2.267.622 3.958 3.958 0 0 0 1.735-2.183 7.884 7.884 0 0 1-2.506.957 3.946 3.946 0 0 0-6.724 3.6 11.204 11.204 0 0 1-8.133-4.123 3.944 3.944 0 0 0 1.221 5.268 3.928 3.928 0 0 1-1.788-.493v.05A3.948 3.948 0 0 0 9.321 16.6a4.005 4.005 0 0 1-1.783.069 3.95 3.95 0 0 0 3.686 2.74 7.916 7.916 0 0 1-5.842 1.634 11.167 11.167 0 0 0 6.05 1.773c7.257 0 11.226-6.013 11.226-11.227 0-.171-.003-.341-.012-.51a8.04 8.04 0 0 0 1.972-2.046z" fill="#FFF"/>
    </g>
</svg>
